<svg xmlns="http://www.w3.org/2000/svg" xmlns:xlink="http://www.w3.org/1999/xlink" width="500" zoomAndPan="magnify" viewBox="0 0 375 374.999991" height="500" preserveAspectRatio="xMidYMid meet" version="1.0"><defs><clipPath id="4a6af720bc"><path d="M 9.394531 9.394531 L 365.644531 9.394531 L 365.644531 365.644531 L 9.394531 365.644531 Z M 9.394531 9.394531 " clip-rule="nonzero"/></clipPath><clipPath id="04f75c019f"><path d="M 42.402344 49.476562 L 332.652344 49.476562 L 332.652344 325.476562 L 42.402344 325.476562 Z M 42.402344 49.476562 " clip-rule="nonzero"/></clipPath></defs><g clip-path="url(#4a6af720bc)"><path fill="#ffffff" d="M 365.644531 187.519531 C 365.644531 190.4375 365.574219 193.351562 365.429688 196.261719 C 365.289062 199.171875 365.074219 202.078125 364.789062 204.980469 C 364.503906 207.882812 364.144531 210.773438 363.71875 213.65625 C 363.289062 216.542969 362.792969 219.414062 362.222656 222.273438 C 361.65625 225.128906 361.015625 227.972656 360.308594 230.800781 C 359.597656 233.628906 358.820312 236.4375 357.976562 239.226562 C 357.128906 242.019531 356.214844 244.785156 355.234375 247.53125 C 354.25 250.273438 353.203125 252.992188 352.085938 255.6875 C 350.972656 258.378906 349.789062 261.042969 348.542969 263.679688 C 347.296875 266.316406 345.988281 268.917969 344.613281 271.488281 C 343.238281 274.058594 341.800781 276.59375 340.304688 279.09375 C 338.804688 281.597656 337.246094 284.058594 335.625 286.480469 C 334.007812 288.90625 332.328125 291.289062 330.59375 293.628906 C 328.855469 295.972656 327.0625 298.269531 325.214844 300.523438 C 323.363281 302.777344 321.460938 304.984375 319.503906 307.140625 C 317.546875 309.300781 315.535156 311.414062 313.472656 313.472656 C 311.414062 315.535156 309.300781 317.546875 307.140625 319.503906 C 304.984375 321.460938 302.777344 323.363281 300.523438 325.214844 C 298.269531 327.0625 295.972656 328.855469 293.628906 330.59375 C 291.289062 332.328125 288.90625 334.007812 286.480469 335.625 C 284.058594 337.246094 281.597656 338.804688 279.09375 340.304688 C 276.59375 341.800781 274.058594 343.238281 271.488281 344.613281 C 268.917969 345.988281 266.316406 347.296875 263.679688 348.542969 C 261.042969 349.789062 258.378906 350.972656 255.6875 352.085938 C 252.992188 353.203125 250.273438 354.25 247.53125 355.234375 C 244.785156 356.214844 242.019531 357.128906 239.226562 357.976562 C 236.4375 358.820312 233.628906 359.597656 230.800781 360.308594 C 227.972656 361.015625 225.128906 361.65625 222.273438 362.222656 C 219.414062 362.792969 216.542969 363.289062 213.65625 363.71875 C 210.773438 364.144531 207.882812 364.503906 204.980469 364.789062 C 202.078125 365.074219 199.171875 365.289062 196.261719 365.429688 C 193.351562 365.574219 190.4375 365.644531 187.519531 365.644531 C 184.605469 365.644531 181.691406 365.574219 178.78125 365.429688 C 175.871094 365.289062 172.964844 365.074219 170.0625 364.789062 C 167.160156 364.503906 164.269531 364.144531 161.382812 363.71875 C 158.5 363.289062 155.628906 362.792969 152.769531 362.222656 C 149.910156 361.65625 147.066406 361.015625 144.242188 360.308594 C 141.414062 359.597656 138.605469 358.820312 135.8125 357.976562 C 133.023438 357.128906 130.257812 356.214844 127.511719 355.234375 C 124.769531 354.25 122.050781 353.203125 119.355469 352.085938 C 116.664062 350.972656 114 349.789062 111.363281 348.542969 C 108.726562 347.296875 106.125 345.988281 103.554688 344.613281 C 100.984375 343.238281 98.445312 341.800781 95.945312 340.304688 C 93.445312 338.804688 90.984375 337.246094 88.558594 335.625 C 86.136719 334.007812 83.753906 332.328125 81.414062 330.59375 C 79.070312 328.855469 76.773438 327.0625 74.519531 325.214844 C 72.265625 323.363281 70.058594 321.460938 67.898438 319.503906 C 65.738281 317.546875 63.628906 315.535156 61.566406 313.472656 C 59.507812 311.414062 57.496094 309.300781 55.539062 307.140625 C 53.582031 304.984375 51.679688 302.777344 49.828125 300.523438 C 47.980469 298.269531 46.1875 295.972656 44.449219 293.628906 C 42.714844 291.289062 41.035156 288.90625 39.414062 286.480469 C 37.796875 284.058594 36.238281 281.597656 34.738281 279.09375 C 33.238281 276.59375 31.804688 274.058594 30.429688 271.488281 C 29.054688 268.917969 27.746094 266.316406 26.496094 263.679688 C 25.25 261.042969 24.070312 258.378906 22.953125 255.6875 C 21.839844 252.992188 20.789062 250.273438 19.808594 247.53125 C 18.828125 244.785156 17.914062 242.019531 17.066406 239.226562 C 16.21875 236.4375 15.441406 233.628906 14.734375 230.800781 C 14.027344 227.972656 13.386719 225.128906 12.820312 222.273438 C 12.25 219.414062 11.75 216.542969 11.324219 213.65625 C 10.894531 210.773438 10.539062 207.882812 10.253906 204.980469 C 9.96875 202.078125 9.753906 199.171875 9.609375 196.261719 C 9.46875 193.351562 9.394531 190.4375 9.394531 187.519531 C 9.394531 184.605469 9.46875 181.691406 9.609375 178.78125 C 9.753906 175.871094 9.96875 172.964844 10.253906 170.0625 C 10.539062 167.160156 10.894531 164.269531 11.324219 161.382812 C 11.75 158.5 12.25 155.628906 12.820312 152.769531 C 13.386719 149.910156 14.027344 147.066406 14.734375 144.242188 C 15.441406 141.414062 16.21875 138.605469 17.066406 135.8125 C 17.914062 133.023438 18.828125 130.257812 19.808594 127.511719 C 20.789062 124.769531 21.839844 122.050781 22.953125 119.355469 C 24.070312 116.664062 25.25 114 26.496094 111.363281 C 27.746094 108.726562 29.054688 106.125 30.429688 103.554688 C 31.804688 100.984375 33.238281 98.445312 34.738281 95.945312 C 36.238281 93.445312 37.796875 90.984375 39.414062 88.558594 C 41.035156 86.136719 42.714844 83.753906 44.449219 81.414062 C 46.1875 79.070312 47.980469 76.773438 49.828125 74.519531 C 51.679688 72.265625 53.582031 70.058594 55.539062 67.898438 C 57.496094 65.738281 59.507812 63.628906 61.566406 61.566406 C 63.628906 59.507812 65.738281 57.496094 67.898438 55.539062 C 70.058594 53.582031 72.265625 51.679688 74.519531 49.828125 C 76.773438 47.980469 79.070312 46.1875 81.414062 44.449219 C 83.753906 42.714844 86.136719 41.035156 88.558594 39.414062 C 90.984375 37.796875 93.445312 36.238281 95.945312 34.738281 C 98.445312 33.238281 100.984375 31.804688 103.554688 30.429688 C 106.125 29.054688 108.726562 27.746094 111.363281 26.496094 C 114 25.25 116.664062 24.070312 119.355469 22.957031 C 122.050781 21.839844 124.769531 20.789062 127.511719 19.808594 C 130.257812 18.828125 133.023438 17.914062 135.8125 17.066406 C 138.605469 16.21875 141.414062 15.441406 144.242188 14.734375 C 147.066406 14.027344 149.910156 13.386719 152.769531 12.820312 C 155.628906 12.25 158.5 11.75 161.382812 11.324219 C 164.269531 10.894531 167.160156 10.539062 170.0625 10.253906 C 172.964844 9.96875 175.871094 9.753906 178.78125 9.609375 C 181.691406 9.46875 184.605469 9.394531 187.519531 9.394531 C 190.4375 9.394531 193.351562 9.46875 196.261719 9.609375 C 199.171875 9.753906 202.078125 9.96875 204.980469 10.253906 C 207.882812 10.539062 210.773438 10.894531 213.65625 11.324219 C 216.542969 11.75 219.414062 12.25 222.273438 12.820312 C 225.128906 13.386719 227.972656 14.027344 230.800781 14.734375 C 233.628906 15.441406 236.4375 16.21875 239.226562 17.066406 C 242.019531 17.914062 244.785156 18.828125 247.53125 19.808594 C 250.273438 20.789062 252.992188 21.839844 255.6875 22.957031 C 258.378906 24.070312 261.042969 25.25 263.679688 26.496094 C 266.316406 27.746094 268.917969 29.054688 271.488281 30.429688 C 274.058594 31.804688 276.59375 33.238281 279.09375 34.738281 C 281.597656 36.238281 284.058594 37.796875 286.480469 39.414062 C 288.90625 41.035156 291.289062 42.714844 293.628906 44.449219 C 295.972656 46.1875 298.269531 47.980469 300.523438 49.828125 C 302.777344 51.679688 304.984375 53.582031 307.140625 55.539062 C 309.300781 57.496094 311.414062 59.507812 313.472656 61.566406 C 315.535156 63.628906 317.546875 65.738281 319.503906 67.898438 C 321.460938 70.058594 323.363281 72.265625 325.214844 74.519531 C 327.0625 76.773438 328.855469 79.070312 330.59375 81.414062 C 332.328125 83.753906 334.007812 86.136719 335.625 88.558594 C 337.246094 90.984375 338.804688 93.445312 340.304688 95.945312 C 341.800781 98.445312 343.238281 100.984375 344.613281 103.554688 C 345.988281 106.125 347.296875 108.726562 348.542969 111.363281 C 349.789062 114 350.972656 116.664062 352.085938 119.355469 C 353.203125 122.050781 354.25 124.769531 355.234375 127.511719 C 356.214844 130.257812 357.128906 133.023438 357.976562 135.8125 C 358.824219 138.605469 359.597656 141.414062 360.308594 144.242188 C 361.015625 147.066406 361.65625 149.910156 362.222656 152.769531 C 362.792969 155.628906 363.289062 158.5 363.71875 161.382812 C 364.144531 164.269531 364.503906 167.160156 364.789062 170.0625 C 365.074219 172.964844 365.289062 175.871094 365.429688 178.78125 C 365.574219 181.691406 365.644531 184.605469 365.644531 187.519531 Z M 365.644531 187.519531 " fill-opacity="1" fill-rule="nonzero"/></g><g clip-path="url(#04f75c019f)"><path fill="#002db8" d="M 332.296875 325.574219 L 245.179688 325.574219 L 116.054688 71.566406 L 78.664062 71.566406 L 159.578125 230.734375 L 74.109375 325.570312 L 42.90625 325.570312 L 132.664062 226.460938 L 42.699219 49.503906 L 129.582031 49.503906 L 258.710938 303.515625 L 296.320312 303.515625 L 215.292969 144.238281 L 300.785156 49.507812 L 331.894531 49.507812 L 242.222656 148.523438 L 332.296875 325.574219 " fill-opacity="1" fill-rule="nonzero"/></g></svg>